<svg id="图层_1" data-name="图层 1" xmlns="http://www.w3.org/2000/svg" xmlns:xlink="http://www.w3.org/1999/xlink" viewBox="0 0 440 320"><defs><style>.cls-1{fill:#f9f9f9;}.cls-2{fill:#ccc;}.cls-3{opacity:0.5;}.cls-4{fill:#adadad;}.cls-5{fill:#99d9e6;}.cls-6{fill:#e6e7e8;opacity:0.8;}.cls-7{fill:#fff;}.cls-8{opacity:0.4;}.cls-9{fill:url(#未命名的渐变_22);}.cls-10{fill:url(#未命名的渐变_30);}.cls-11{opacity:0.6;}.cls-12{opacity:0.22;}.cls-13{fill:#757575;}.cls-14{fill:#bebebe;}.cls-15{opacity:0.7;}.cls-16{fill:#989898;}.cls-17{fill:url(#未命名的渐变_30-2);}</style><linearGradient id="未命名的渐变_22" x1="277.82" y1="91.08" x2="355.55" y2="91.08" gradientUnits="userSpaceOnUse"><stop offset="0.33" stop-color="#00bf6c"/><stop offset="1" stop-color="#00a63b"/></linearGradient><linearGradient id="未命名的渐变_30" x1="242.69" y1="123.17" x2="281.54" y2="123.17" gradientUnits="userSpaceOnUse"><stop offset="0.33" stop-color="#363b1c"/><stop offset="1" stop-color="#2b2c2e"/></linearGradient><linearGradient id="未命名的渐变_30-2" x1="340.18" y1="137.77" x2="397.21" y2="137.77" xlink:href="#未命名的渐变_30"/></defs><title>开发者网站配图</title><path class="cls-1" d="M40,225.33v23.31a8.31,8.31,0,0,0,8.19,8.45H338.82a8.31,8.31,0,0,0,8.19-8.45V225.33Z"/><path class="cls-2" d="M185.71,241.47a7.67,7.67,0,1,0,7.67-7.67A7.67,7.67,0,0,0,185.71,241.47Z"/><g class="cls-3"><path class="cls-2" d="M165.77,257c-.21,0-2.25,16.32-2.45,16.73-.41,3.46-1,5.5-2.85,7.13a9.67,9.67,0,0,1-1.84,1.23c-1.43,1-2.65,1.63-4.28,2.65-1.23.61-2.65,3.06-1.23,3.67h80.77c1.43-.61,0-2.85-1.22-3.47a31.65,31.65,0,0,1-4.29-3.06,12.77,12.77,0,0,1-1.83-1.63c-1.63-1.63-2.45-3.06-2.86-6.52,0-.41-2.45-18.16-2.45-16.73"/><path class="cls-4" d="M221.86,263.15c-.21-6.12-.41-6.12-.41-6.12H166s-.2,0-.41,6.12Z"/></g><path class="cls-5" d="M173.7,182.18l-.51,1.28Z"/><path class="cls-2" d="M347.14,40A8.3,8.3,0,0,0,339,31.56H48.31A8.3,8.3,0,0,0,40.13,40v5.17h307Z"/><polygon class="cls-6" points="40.13 45.17 40.13 226 347.14 225.75 347.14 45.17 40.13 45.17"/><path class="cls-7" d="M329.14,38.36a4.37,4.37,0,1,1-4.37-4.19h0a4.26,4.26,0,0,1,4.37,4.17Z"/><path class="cls-7" d="M312.28,38.36a4.37,4.37,0,1,1-4.37-4.19h0a4.27,4.27,0,0,1,4.37,4.17Z"/><ellipse class="cls-7" cx="291.05" cy="38.36" rx="4.37" ry="4.2"/><g class="cls-8"><path class="cls-2" d="M335.14,175c0-4.48,2.35-7.15,5.6-7.15s5.62,2.67,5.62,7.15-2.37,7.15-5.62,7.15S335.14,179.4,335.14,175Zm9.73,0c0-3.73-1.68-5.82-4.13-5.82s-4.14,2.09-4.14,5.82,1.69,5.79,4.18,5.79,4.09-2.06,4.09-5.79Z"/><path class="cls-2" d="M348.43,175c0-4.48,2.35-7.15,5.6-7.15s5.62,2.67,5.62,7.15-2.36,7.15-5.62,7.15S348.43,179.4,348.43,175Zm9.76,0c0-3.73-1.69-5.82-4.14-5.82s-4.16,2.09-4.16,5.82,1.7,5.83,4.14,5.83S358.19,178.68,358.19,175Z"/><path class="cls-2" d="M365.57,167.89V182h-1.44V169.17h-3.32v-1.25Z"/><path class="cls-2" d="M368.93,175c0-4.48,2.35-7.15,5.61-7.15s5.62,2.67,5.62,7.15-2.37,7.15-5.62,7.15S368.93,179.4,368.93,175Zm9.75,0c0-3.73-1.69-5.82-4.14-5.82s-4.14,2.09-4.14,5.82,1.69,5.83,4.14,5.83S378.68,178.68,378.68,175Z"/><path class="cls-2" d="M386.09,167.89V182h-1.46V169.17h-3.3v-1.25Z"/><path class="cls-2" d="M321.29,194.84c0-4.49,2.36-7.15,5.6-7.15s5.64,2.66,5.64,7.15-2.38,7.15-5.64,7.15S321.29,199.34,321.29,194.84Zm9.74,0c0-3.73-1.67-5.83-4.14-5.83s-4.14,2.1-4.14,5.83,1.69,5.82,4.14,5.82S331,198.57,331,194.84Z"/><path class="cls-2" d="M334.56,194.84c0-4.49,2.35-7.15,5.61-7.15s5.62,2.66,5.62,7.15-2.37,7.15-5.62,7.15S334.56,199.34,334.56,194.84Zm9.75,0c0-3.73-1.69-5.83-4.14-5.83s-4.11,2.1-4.11,5.83,1.68,5.82,4.14,5.82,4.14-2.09,4.14-5.82Z"/><path class="cls-2" d="M351.73,187.83v14.06h-1.44V189.12H347v-1.24Z"/><path class="cls-2" d="M355.09,194.84c0-4.49,2.35-7.15,5.61-7.15s5.62,2.66,5.62,7.15S364,202,360.7,202,355.09,199.34,355.09,194.84Zm9.75,0c0-3.73-1.69-5.83-4.14-5.83s-4.14,2.1-4.14,5.83,1.69,5.82,4.14,5.82S364.84,198.57,364.84,194.84Z"/><path class="cls-2" d="M372.24,187.83v14.06h-1.45V189.12h-3.31v-1.24Z"/><path class="cls-2" d="M379.5,187.83v14.06h-1.42V189.12h-3.31v-1.24Z"/><path class="cls-2" d="M382.84,194.84c0-4.49,2.35-7.15,5.61-7.15s5.62,2.66,5.62,7.15-2.36,7.15-5.62,7.15S382.84,199.34,382.84,194.84Zm9.75,0c0-3.73-1.69-5.83-4.14-5.83s-4.15,2.1-4.15,5.83,1.69,5.82,4.14,5.82,4.15-2.09,4.15-5.82Z"/><path class="cls-2" d="M400,187.83v14.06h-1.45V189.12h-3.31v-1.24Z"/><path class="cls-2" d="M335.14,214.15c0-4.48,2.35-7.15,5.6-7.15s5.62,2.67,5.62,7.15-2.36,7.16-5.62,7.16S335.14,218.64,335.14,214.15Zm9.74,0c0-3.73-1.69-5.82-4.14-5.82s-4.14,2.06-4.14,5.82,1.69,5.83,4.14,5.83S344.88,217.92,344.88,214.15Z"/><path class="cls-2" d="M352.28,207.12v14.07h-1.44V208.4h-3.32v-1.24Z"/><path class="cls-2" d="M359.54,207.12v14.07h-1.45V208.4h-3.31v-1.24Z"/><path class="cls-2" d="M366.79,207.12v14.07h-1.45V208.4H362v-1.24Z"/><path class="cls-2" d="M370.14,214.15c0-4.48,2.35-7.15,5.6-7.15s5.62,2.67,5.62,7.15-2.36,7.16-5.62,7.16S370.14,218.64,370.14,214.15Zm9.74,0c0-3.73-1.69-5.82-4.14-5.82s-4.14,2.06-4.14,5.82,1.69,5.83,4.14,5.83,4.14-2.06,4.14-5.83Z"/><path class="cls-2" d="M387.29,207.12v14.07h-1.45V208.4h-3.31v-1.24Z"/></g><path class="cls-9" d="M343.11,53.94H290.26a12.41,12.41,0,0,0-12.44,12.38V92.06a12.44,12.44,0,0,0,12.44,12.44h13.81l10.49,23.73L329.3,104.5h13.81a12.44,12.44,0,0,0,12.44-12.44h0V66.35a12.4,12.4,0,0,0-12.41-12.41Z"/><path class="cls-7" d="M306.47,83.12v4.17c0,5-2.49,7.85-7.44,7.85s-7.44-2.86-7.44-7.85V71c0-5,2.49-7.85,7.44-7.85S306.47,66,306.47,71v3h-4.65V70.73c0-2.23-1-3.09-2.53-3.09s-2.53.86-2.53,3.09V87.59c0,2.23,1,3,2.53,3s2.53-.82,2.53-3V83.12Zm11.8-5.69h6v3.46h-6V87h-3.5V80.89h-5.95V77.43h5.95v-6h3.5Zm17.68,0h5.84v3.46h-6V87h-3.46V80.89h-6V77.43h6v-6h3.46Z"/><path class="cls-10" d="M275.32,104.6H248.89a6.21,6.21,0,0,0-6.2,6.21h0v12.87a6.21,6.21,0,0,0,6.2,6.2h6.91l2,11.87,10.59-11.87h6.91a6.2,6.2,0,0,0,6.22-6.19h0V110.86a6.22,6.22,0,0,0-6.18-6.26Z"/><path class="cls-7" d="M249.71,118.47v-1.71l7.17-2.68v1.74l-4.9,1.74,4.92,1.76v1.74Zm14.23-8.55H266l-6,15.39h-2.09ZM267,121.11v-1.74l4.92-1.75L267,115.86v-1.74l7.17,2.68v1.71Z"/><g class="cls-11"><path class="cls-2" d="M119.47,89.48l-6.09-24L90,71.82,87,77.22l-7.8.08L61.55,94.66l17.24,17,6.17-.09,3.35,6L112,124.77l6.7-23.26-3-5.36Zm-32.59-11,17.87-4.24L94.66,91.86,73.5,91.78ZM85.3,110.12,73.43,97.7,94,97.5l9.77,18.14ZM109,112.87,99.2,95.29l10.63-18,4.71,18.24Z"/><path class="cls-2" d="M199.76,96a30.91,30.91,0,1,1-31-30.9A30.91,30.91,0,0,1,199.76,96Zm-3.91-.1a26.86,26.86,0,1,0-27.06,26.78A26.86,26.86,0,0,0,195.85,95.85Zm-42.3,12.79c3.54,3.88,8.21,5.32,13.2,6a2,2,0,0,0,1.33-.69c1.27-1.24,2.47-2.55,3.77-3.91,1.21,1,2.37,1.92,3.45,2.91a1.13,1.13,0,0,0,1.66.09,27.21,27.21,0,0,0,7.08-6.91c1-1.46,2-3,2.92-4.48a23.57,23.57,0,0,0-2.48,1.77,13.91,13.91,0,0,1-3.39,1.73c-1.53.47-2.23-.14-2.26-1.73-.07-4.65-.05-9.3-.18-13.94a7.82,7.82,0,0,1,1.88-5.59c1.21-1.45,2.31-3,3.67-4.75a22.39,22.39,0,0,0-10.86,5.53c-.64.59-1.1.94-2,.48a7.72,7.72,0,0,0-2.19-.35A7.51,7.51,0,0,1,171,90.59c-.08,3.7,0,7.42,0,11.13,0,2.91-.35,3.32-3,4.5a3,3,0,0,1-4.36-2.93c.23-5.72.07-11.46.07-17.19-1.86-.08-2.25-.46-2.45-2.27a5.38,5.38,0,0,1,1.33-4.26c.58-.68,1.24-1.29,2-2.1-.43.09-.62.1-.8.16-6.64,2.14-11.48,6.69-15.67,12a24.55,24.55,0,0,0-3.29,5.93,28.45,28.45,0,0,0-1.08,5.19l.4.06a43,43,0,0,1,3.21-4.72,37.21,37.21,0,0,1,5.53-5.27c1.74-1.28,3.15-.3,3.15,1.86q0,6.31,0,12.62c0,2.51-.3,2.81-3,2.74A6.14,6.14,0,0,0,153.55,108.64Zm35.7-27.31-.79,5.82c1.45.8,1.37,1,.11,2.08-.45.36-.41,1.33-.64,2.2H186l.16-2.27h-4.05c-.14-2.36,1.81-3.47,2.54-5.18C185.55,82,187.38,81.73,189.25,81.33Zm-2.82,6.08.35-3.08-.3,0-2.09,3.13Z"/><g class="cls-12"><path class="cls-13" d="M302,176H283.09a2.18,2.18,0,0,1,0-4.36H302a2.18,2.18,0,0,1,0,4.36Z"/><path class="cls-13" d="M302,191.05H249.2a2.18,2.18,0,0,1,0-4.36H302a2.18,2.18,0,0,1,0,4.36Z"/><path class="cls-13" d="M302,206.12H185.65a2.18,2.18,0,0,1,0-4.36H302a2.18,2.18,0,0,1,0,4.36Z"/><path class="cls-14" d="M72.52,160.9H63.71a2.18,2.18,0,0,1,0-4.36h8.81a2.18,2.18,0,0,1,0,4.36Z"/><path class="cls-14" d="M72.52,176H63.71a2.18,2.18,0,0,1,0-4.36h8.81a2.18,2.18,0,0,1,0,4.36Z"/><path class="cls-14" d="M72.52,191.05H63.71a2.18,2.18,0,0,1,0-4.36h8.81a2.18,2.18,0,0,1,0,4.36Z"/><path class="cls-14" d="M72.52,206.12H63.71a2.18,2.18,0,0,1,0-4.36h8.81a2.18,2.18,0,0,1,0,4.36Z"/><g class="cls-15"><path class="cls-14" d="M72.52,160.9H63.71a2.18,2.18,0,0,1,0-4.36h8.81a2.18,2.18,0,0,1,0,4.36Z"/></g><g class="cls-15"><path class="cls-14" d="M72.52,176H63.71a2.18,2.18,0,0,1,0-4.36h8.81a2.18,2.18,0,0,1,0,4.36Z"/></g><g class="cls-15"><path class="cls-14" d="M72.52,191.05H63.71a2.18,2.18,0,0,1,0-4.36h8.81a2.18,2.18,0,0,1,0,4.36Z"/></g><g class="cls-15"><path class="cls-14" d="M72.52,206.12H63.71a2.18,2.18,0,0,1,0-4.36h8.81a2.18,2.18,0,0,1,0,4.36Z"/></g><path class="cls-14" d="M249.2,145.82H63.71a2.18,2.18,0,0,1,0-4.36H249.2a2.18,2.18,0,0,1,0,4.36Z"/><path class="cls-16" d="M302,160.9H283.09a2.18,2.18,0,0,1,0-4.36H302a2.18,2.18,0,0,1,0,4.36Z"/><path class="cls-16" d="M275.18,160.9H82.24a2.18,2.18,0,0,1,0-4.36H275.18a2.18,2.18,0,0,1,0,4.36Z"/><path class="cls-16" d="M137.65,176H82.24a2.18,2.18,0,0,1,0-4.36h55.41a2.18,2.18,0,0,1,0,4.36Z"/><path class="cls-16" d="M137.65,191.05H82.24a2.18,2.18,0,0,1,0-4.36h55.41a2.18,2.18,0,0,1,0,4.36Z"/><path class="cls-16" d="M137.65,206.12H82.24a2.18,2.18,0,0,1,0-4.36h55.41a2.18,2.18,0,0,1,0,4.36Z"/></g></g><path class="cls-17" d="M388.08,110.51H349.29a9.11,9.11,0,0,0-9.11,9.11h0v18.89a9.11,9.11,0,0,0,9.11,9.11h10.14l3,17.41,15.54-17.41h10.14a9.12,9.12,0,0,0,9.13-9.09V119.7a9.13,9.13,0,0,0-9.07-9.19Z"/><path class="cls-7" d="M349.63,121.33h2.09v10.76c0,4.28-2.1,5.6-4.87,5.6a6.75,6.75,0,0,1-2.22-.38l.3-1.7a4.92,4.92,0,0,0,1.76.31c1.85,0,2.94-.84,2.94-4Zm8.16,11-1.66,5.06H354l5.47-16.1h2.5l5.5,16.1h-2.22l-1.73-5.06Zm5.28-1.63-1.59-4.63c-.35-1-.59-2-.83-2.94h0c-.23.94-.49,1.93-.8,2.91l-1.59,4.66Zm9,6.69-5.27-16.1h2.26l2.5,7.94c.69,2.17,1.29,4.13,1.72,6h.06c.45-1.86,1.11-3.88,1.83-6l2.72-8h2.22l-5.75,16.1Zm11-5.06-1.66,5.06h-2.16l5.48-16.1h2.5l5.49,16.1h-2.22l-1.72-5.06Zm5.29-1.63-1.6-4.63c-.35-1-.59-2-.83-2.94h-.05c-.23.94-.49,1.93-.8,2.91l-1.59,4.66Z"/></svg>