<svg id="图层_1" data-name="图层 1" xmlns="http://www.w3.org/2000/svg" xmlns:xlink="http://www.w3.org/1999/xlink" viewBox="0 0 440 320"><defs><style>.cls-1,.cls-5{fill:none;}.cls-2{fill:#f0f2f7;}.cls-2,.cls-4,.cls-6{opacity:0.5;}.cls-3{fill:url(#未命名的渐变_45);}.cls-4,.cls-5{isolation:isolate;}.cls-5{stroke:#bbb;stroke-linecap:round;stroke-linejoin:round;stroke-width:3px;}.cls-7{fill:url(#未命名的渐变_45-2);}.cls-8{fill:url(#未命名的渐变_45-3);}.cls-9{clip-path:url(#clip-path);}.cls-10{fill:url(#未命名的渐变_22);}.cls-11{fill:#ebe6e5;}.cls-12{fill:#e1dbda;}.cls-13{fill:#f2f2f2;}.cls-14{fill:url(#未命名的渐变_2);}.cls-15{fill:url(#未命名的渐变_5);}.cls-16{fill:#ede6e5;}.cls-17{fill:#ccc;}.cls-18{fill:#fff;}.cls-19{fill:url(#未命名的渐变_45-4);}</style><linearGradient id="未命名的渐变_45" x1="181.61" y1="58.76" x2="269.87" y2="58.76" gradientUnits="userSpaceOnUse"><stop offset="0.33" stop-color="#dcdcdc"/><stop offset="0.74" stop-color="silver"/></linearGradient><linearGradient id="未命名的渐变_45-2" x1="155.21" y1="122" x2="206.64" y2="122" gradientTransform="translate(238.73 -50.97) rotate(10.39)" xlink:href="#未命名的渐变_45"/><linearGradient id="未命名的渐变_45-3" x1="-263.13" y1="192.72" x2="-206.59" y2="192.72" gradientTransform="matrix(0.94, 0.35, -0.35, 0.94, 343.58, 7.94)" xlink:href="#未命名的渐变_45"/><clipPath id="clip-path"><rect class="cls-1" x="27.38" y="69.76" width="389.72" height="211.94" rx="12"/></clipPath><linearGradient id="未命名的渐变_22" x1="145.15" y1="277.39" x2="299.33" y2="277.39" gradientUnits="userSpaceOnUse"><stop offset="0.33" stop-color="#00bf6c"/><stop offset="1" stop-color="#00a63b"/></linearGradient><linearGradient id="未命名的渐变_2" x1="183.53" y1="149.72" x2="200.98" y2="149.72" gradientUnits="userSpaceOnUse"><stop offset="0.33" stop-color="#232323"/><stop offset="1" stop-color="#2b2c2e"/></linearGradient><linearGradient id="未命名的渐变_5" x1="183.46" y1="135.49" x2="260.3" y2="135.49" gradientUnits="userSpaceOnUse"><stop offset="0.33" stop-color="#3a3a3a"/><stop offset="1" stop-color="#2b2c2e"/></linearGradient><linearGradient id="未命名的渐变_45-4" x1="16" y1="260.56" x2="60.48" y2="260.56" xlink:href="#未命名的渐变_45"/></defs><title>开发者网站配图</title><rect class="cls-2" x="48.11" y="90.83" width="350.96" height="190.86" rx="12"/><path class="cls-3" d="M244,49.07h-8.61A6.35,6.35,0,0,0,229,55.53V72.75a6.35,6.35,0,0,0,6.46,6.46H244a6.35,6.35,0,0,0,6.46-6.46V55.53A6.35,6.35,0,0,0,244,49.07Zm2.15,23.68A2,2,0,0,1,244,74.91h-8.61a2,2,0,0,1-2.16-2.16V55.53a2,2,0,0,1,2.16-2.15H244a2,2,0,0,1,2.15,2.15ZM220.36,49.07H209.59a4.31,4.31,0,0,0-4.3,4.31V74.91a4.31,4.31,0,0,0,4.3,4.3h10.77a4.31,4.31,0,0,0,4.3-4.3V66.3a4.31,4.31,0,0,0-4.3-4.31h-8.18a5.76,5.76,0,0,0-2.59.64V53.38h10.77v4.3h4.3v-4.3A4.31,4.31,0,0,0,220.36,49.07ZM210.24,67.59a2.07,2.07,0,0,1,1.94-1.29h8.18v8.61H209.59V67.16ZM201,53.38V74.91a4.32,4.32,0,0,1-4.3,4.3H181.61v-4.3h15.07V66.3h-8.62V62h8.62V53.38H183.76V49.07h12.92A4.32,4.32,0,0,1,201,53.38Zm60.28-15.07a8.61,8.61,0,1,0,8.61,8.61A8.64,8.64,0,0,0,261.26,38.31Zm0,12.91a4.31,4.31,0,1,1,4.31-4.3A4.31,4.31,0,0,1,261.26,51.22Z"/><g class="cls-4"><path class="cls-5" d="M63.46,216.56a21.23,21.23,0,0,1,19.22,22.88"/><path class="cls-5" d="M60.48,231.42a10,10,0,0,1,9.06,10.78"/><path class="cls-5" d="M64.84,200.71a37.29,37.29,0,0,1,33.9,40.36"/><path class="cls-5" d="M66.39,182.82a55.28,55.28,0,0,1,50.23,59.8"/></g><g class="cls-6"><path class="cls-5" d="M376.22,131.21a15.34,15.34,0,0,1-13.32-17"/><path class="cls-5" d="M374.84,142.62a26.93,26.93,0,0,1-23.48-29.95"/><path class="cls-5" d="M373.29,155.49a39.92,39.92,0,0,1-34.8-44.38"/></g><g class="cls-4"><path class="cls-5" d="M106.68,104.29a12.36,12.36,0,0,1-8.8,15"/><path class="cls-5" d="M98,105.55a5.82,5.82,0,0,1-4.14,7.06"/><path class="cls-5" d="M115.63,102a21.67,21.67,0,0,1-15.52,26.43"/><path class="cls-5" d="M125.74,99.34a32.15,32.15,0,0,1-23,39.16"/></g><path class="cls-7" d="M413.65,83l-11,7.6-25.55-10-5.19,3.66,22.16,13.18-13,10-10.71-4.23L367.92,105l9.61,9.5,4.3,11,2.45-1.72.48-10.86,13.54-8.79,4.11,25.14,5.19-3.66.27-27.12,11.07-7.63c4.93-3.47,5.92-6.75,4.41-9S418.59,79.57,413.65,83Z"/><path class="cls-8" d="M81.26,103.36c-.13-.54-.27-1.08-.4-1.61a13.74,13.74,0,0,0-3.4-5.22c-6.33-6-15.23-2.65-19.06,2.32-1.14,0-3.47-2.48-4.17-3.23-3.2-3.41-6.14-7.74-7-11.89L47,83.61c-4.8,5.15-6.71,12.29-6,17.52.19,1.28.34,3.3,1.25,4.31l-.13.25-2.32.22a44.53,44.53,0,0,1-8.89-.25,12.25,12.25,0,0,1-4.23-.82c0,.94,3.61,4.63,4.48,5.6,4.69,5.15,12.6,12.19,21.41,14.19,9.39,2.13,16.74-.91,23.29-7.58a38.21,38.21,0,0,0,3.2-4.24c.58-.79,1.07-2.58,1.56-3.06l4.84-3.47h0c.44-.3,1.08-.51,1.4-1.06Zm-5.81,3.74A2.47,2.47,0,1,1,78.78,106,2.47,2.47,0,0,1,75.45,107.1Z"/><g class="cls-9"><rect class="cls-10" x="145.15" y="227.07" width="154.18" height="100.63" rx="35.92"/><path class="cls-11" d="M194.87,228.58c3.58,9.37,32.14,35.81,53.71-2.24h.54c-4.06-3.88-7.18-11.73-6-23.45-10.83,17.11-31.46,18.12-42.06.44.78,5.17.4,14.68-6.21,25.23v0Z"/><path class="cls-12" d="M201.77,205.7c.93,3.34,25,26.07,46.85,20.49-6.39-7.94-4.12-20.36-3.72-27.74,2.25-5-42.47,2.78-43.13,7.25Z"/><path class="cls-13" d="M249.28,132.77c-30.51,6.84-43.31,3.55-49.54-.69-10,8-7.48,26.37-10.69,29.73a22.07,22.07,0,0,1-1.51-2.17c-2.79,76,70.15,70.8,69.48,4-6.58-10.1-2.71-10.61-5.27-20.55Z"/><path class="cls-14" d="M184.47,166.62a5.55,5.55,0,0,1,1.08-.07h1.16A7.49,7.49,0,0,0,190.9,161l2.64-15a7.57,7.57,0,0,1,7.44-6.28h-6.36a11.06,11.06,0,0,1-10.39-7.21,26.79,26.79,0,0,0-.7,6.13v28.15c.24-.08.63-.16.94-.24Z"/><path class="cls-15" d="M194.62,139.79h48.24a7.57,7.57,0,0,1,7.44,6.28l2.64,15a7.77,7.77,0,0,0,3.18,5h2.09a4,4,0,0,1,1,.08h.08l1,.23v-27.6A26.31,26.31,0,0,0,234,112.42H204.55a20.47,20.47,0,0,1-16.05-7.76,31.78,31.78,0,0,0-5,17.06v7.06a10.38,10.38,0,0,0,.7,3.88A11.15,11.15,0,0,0,194.62,139.79Z"/><path class="cls-16" d="M256.41,166a68.42,68.42,0,0,1-4.66,24.58C267.26,186.17,270.92,151.29,256.41,166Zm-68.65,0a68.42,68.42,0,0,0,4.66,24.58C176.91,186.17,173.25,151.29,187.76,166Z"/><rect class="cls-17" x="176.13" y="145.24" width="92.22" height="37.04" rx="9.44" transform="translate(-0.3 0.4) rotate(-0.1)"/><rect class="cls-18" x="182.68" y="148.42" width="79.12" height="30.68" rx="7.07" transform="translate(-0.3 0.41) rotate(-0.1)"/><path class="cls-12" d="M229.37,191.85c0,3.59-3.19,6.5-7.13,6.5s-7.12-2.91-7.12-6.5Z"/></g><path class="cls-19" d="M59.33,253.27H55.16a1.33,1.33,0,0,0-.55.15l-1.87-5.71a5.45,5.45,0,0,0-5.65-4.82H29.44a5.54,5.54,0,0,0-5.65,4.82l-1.88,5.73a1.12,1.12,0,0,0-.58-.17H17.16A1.18,1.18,0,0,0,16,254.44h0v1a1.17,1.17,0,0,0,1.16,1.17l1.58.27a7.43,7.43,0,0,0-.78,3.42l-.59,6.74c0,.2,0,.4,0,.6a2.33,2.33,0,0,0,0,.38v8.1a2.08,2.08,0,0,0,2.07,2.09h3.17a2.07,2.07,0,0,0,2.06-2.09h0v-2.6H51.85v2.6a2.07,2.07,0,0,0,2.07,2.09h3.16a2.07,2.07,0,0,0,2.07-2.09h0V268a1.58,1.58,0,0,0,0-.38,4,4,0,0,0,0-.6l-.58-6.74a7.41,7.41,0,0,0-.79-3.42l1.55-.27a1.15,1.15,0,0,0,1.15-1.17h0v-1a1.16,1.16,0,0,0-1.15-1.17Zm-34.15-1.2,1.38-3.7,0-.09c.14-.75.45-.88.9-1.46H49.07c.46.59.75.75.87,1.45l1.4,3.8.51,2.07c-.11,1.51-1.91,2.7-3.41,2.7H28.08c-1.5,0-3.3-1.19-3.41-2.7Zm1,17.63a3.17,3.17,0,1,1,3.13-3.17,3.15,3.15,0,0,1-3.13,3.17Zm17.51-2.34a.92.92,0,0,1-.93.94h-8.8a.94.94,0,0,1-.93-.94h0v-2.65a1,1,0,0,1,.93-.94h8.8a.94.94,0,0,1,.93.94Zm6.71,2.34a3.17,3.17,0,1,1,3.14-3.17,3.15,3.15,0,0,1-3.14,3.17Z"/></svg>