<svg id="图层_1" data-name="图层 1" xmlns="http://www.w3.org/2000/svg" xmlns:xlink="http://www.w3.org/1999/xlink" viewBox="0 0 440 320"><defs><style>.cls-1{fill:#f0f2f7;opacity:0.5;}.cls-10,.cls-2,.cls-8,.cls-9{fill:none;stroke:#00bf6c;stroke-linecap:round;stroke-linejoin:round;stroke-width:2px;}.cls-2{stroke-dasharray:5 5;}.cls-3{fill:url(#未命名的渐变_30);}.cls-4{fill:#ccc;}.cls-5{fill:#fff;}.cls-6{fill:url(#未命名的渐变_30-2);}.cls-7{fill:#00bf6c;}.cls-9{stroke-dasharray:4.87 4.87;}.cls-10{stroke-dasharray:5.26 5.26;}.cls-11{fill:#e6e7e8;opacity:0.7;}</style><linearGradient id="未命名的渐变_30" x1="190.59" y1="100.55" x2="255.01" y2="100.55" gradientUnits="userSpaceOnUse"><stop offset="0.33" stop-color="#363b1c"/><stop offset="1" stop-color="#2b2c2e"/></linearGradient><linearGradient id="未命名的渐变_30-2" x1="144.08" y1="207.23" x2="301.52" y2="207.23" xlink:href="#未命名的渐变_30"/></defs><title>开发者网站配图</title><rect class="cls-1" x="45.8" y="79.34" width="354" height="192.51" rx="12"/><path class="cls-2" d="M175.05,106.31c-9.17-1.74-14.68-4-14.68-6.4,0-5.55,28.67-10,64-10s64,4.49,64,10c0,2.65-6.57,5.07-17.31,6.86"/><path class="cls-3" d="M190.59,100.55a32.21,32.21,0,1,0,32.22-32.22,32.21,32.21,0,0,0-32.22,32.22Z"/><rect class="cls-4" x="185.62" y="84.29" width="74.36" height="29.87" rx="11.43" transform="translate(-0.18 0.41) rotate(-0.1)"/><rect class="cls-5" x="190.9" y="86.86" width="63.8" height="24.74" rx="8.75" transform="translate(-0.18 0.41) rotate(-0.1)"/><path class="cls-6" d="M152.94,128.6a560.21,560.21,0,0,0,56.28,6c26.79,1.61,53.17-1.67,79.53-5.36,6.28-.87,11.11,0,12.49,6.32,1.53,7.06-3.41,10.42-9.6,11.4-11.5,1.81-23,3.58-34.63,4.57-9.23.78-12.43,5.16-12.8,14.15-1.38,33.47,7.22,65.31,15,97.32.94,3.88,2.07,7.72,2.78,11.65,1,5.2-.56,9.5-6.13,10.86s-8.83-1.73-10.2-7Q239,253,232.31,227.36a95.51,95.51,0,0,0-2.82-9.57c-1.18-3.1-2.64-6.35-6.82-6.21s-5.55,3.35-6.43,6.6c-4.74,17.66-9.39,35.36-14.08,53a71.74,71.74,0,0,1-2.44,8.64c-1.84,4.52-5.31,7-10.29,5.61s-6.72-5.24-5.61-10.15c2.47-11,4.82-22.11,7.74-33,6.76-25.24,10.26-50.78,9.53-77-.26-9.26-3.72-13.1-12.84-13.86a336,336,0,0,1-34.59-4.78c-8.58-1.6-12-8.64-7.8-14.43A8.74,8.74,0,0,1,152.94,128.6Z"/><path class="cls-2" d="M215.32,118.51a167.51,167.51,0,0,1-.87-17.25c0-27.95,6.52-50.62,14.56-50.62,4.91,0,9.25,8.46,11.89,21.41"/><polygon class="cls-7" points="215.15 128.49 220.85 118.61 209.44 118.61 215.15 128.49"/><polygon class="cls-7" points="184.29 107.05 174.41 101.35 174.41 112.75 184.29 107.05"/><polygon class="cls-7" points="261.42 107.05 271.3 101.35 271.3 112.75 261.42 107.05"/><line class="cls-8" x1="221.93" y1="149.17" x2="221.93" y2="151.67"/><line class="cls-9" x1="221.93" y1="156.55" x2="221.93" y2="232.09"/><line class="cls-8" x1="221.93" y1="234.53" x2="221.93" y2="237.03"/><line class="cls-8" x1="175.56" y1="191.01" x2="178.06" y2="191.01"/><line class="cls-10" x1="183.33" y1="191.01" x2="264.91" y2="191.01"/><line class="cls-8" x1="267.54" y1="191.01" x2="270.04" y2="191.01"/><polygon class="cls-7" points="221.93 246.98 227.68 237.03 216.19 237.03 221.93 246.98"/><polygon class="cls-7" points="221.93 139.76 216.19 149.71 227.68 149.71 221.93 139.76"/><polygon class="cls-7" points="279.99 191.01 270.04 185.26 270.04 196.75 279.99 191.01"/><polygon class="cls-7" points="165.61 191.01 175.56 185.26 175.56 196.75 165.61 191.01"/><line class="cls-8" x1="177.35" y1="211.31" x2="179.63" y2="210.28"/><line class="cls-10" x1="184.42" y1="208.09" x2="258.63" y2="174.22"/><line class="cls-8" x1="261.03" y1="173.12" x2="263.3" y2="172.08"/><polygon class="cls-7" points="272.36 167.95 260.92 166.86 265.69 177.31 272.36 167.95"/><polygon class="cls-7" points="168.3 215.44 174.97 206.09 179.74 216.54 168.3 215.44"/><path class="cls-2" d="M159.24,82.43a66.49,66.49,0,0,1,128,.26"/><polygon class="cls-7" points="156.81 91.61 164.32 84.22 154.16 81.41 156.81 91.61"/><polygon class="cls-7" points="288.8 87.79 281.28 80.4 291.44 77.59 288.8 87.79"/><path class="cls-11" d="M108.88,187.33v32A4.59,4.59,0,0,1,104.3,224H44.77a4.58,4.58,0,0,1-4.57-4.58v-32a4.56,4.56,0,0,1,4.57-4.58H104.3a4.59,4.59,0,0,1,4.58,4.57Zm-4.58,32.06V187.33H44.77v32ZM53.93,192.48v3.43a.51.51,0,0,1-.57.58H49.92a.51.51,0,0,1-.57-.58v-3.43a.5.5,0,0,1,.57-.57h3.44a.51.51,0,0,1,.57.57Zm4.59,9.16v3.43a.51.51,0,0,1-.58.57h-8a.5.5,0,0,1-.57-.57v-3.43a.5.5,0,0,1,.57-.57h8a.51.51,0,0,1,.57.57Zm-4.59,9.16v3.44a.51.51,0,0,1-.58.57H49.92a.51.51,0,0,1-.58-.57V210.8a.51.51,0,0,1,.58-.57h3.43a.5.5,0,0,1,.57.57Zm9.16-18.32v3.43a.51.51,0,0,1-.57.58H59.08a.51.51,0,0,1-.57-.58v-3.43a.5.5,0,0,1,.57-.57h3.44A.51.51,0,0,1,63.09,192.48ZM90.56,210.8v3.44a.5.5,0,0,1-.57.57H59.08a.5.5,0,0,1-.57-.57V210.8a.51.51,0,0,1,.57-.57H90a.51.51,0,0,1,.58.57Zm-22.9-9.16v3.43a.5.5,0,0,1-.57.57H63.65a.5.5,0,0,1-.57-.57v-3.43a.5.5,0,0,1,.57-.57h3.44a.5.5,0,0,1,.57.57Zm4.59-9.16v3.43a.51.51,0,0,1-.58.58H68.24a.51.51,0,0,1-.58-.58v-3.43a.51.51,0,0,1,.58-.57h3.43a.51.51,0,0,1,.57.57Zm4.57,9.16v3.43a.5.5,0,0,1-.57.57H72.81a.5.5,0,0,1-.57-.57v-3.43a.5.5,0,0,1,.57-.57h3.44A.51.51,0,0,1,76.82,201.64Zm4.58-9.16v3.43a.51.51,0,0,1-.57.58H77.4a.51.51,0,0,1-.57-.58v-3.43a.5.5,0,0,1,.57-.57h3.44a.51.51,0,0,1,.57.57ZM86,201.64v3.43a.5.5,0,0,1-.57.57H82a.5.5,0,0,1-.57-.57v-3.43a.5.5,0,0,1,.57-.57h3.44a.51.51,0,0,1,.57.57Zm4.58-9.16v3.43a.51.51,0,0,1-.57.58H86.55a.51.51,0,0,1-.57-.58v-3.43a.5.5,0,0,1,.57-.57H90A.51.51,0,0,1,90.56,192.48Zm9.14,0v12.59a.5.5,0,0,1-.57.57h-8a.5.5,0,0,1-.57-.57v-3.43a.5.5,0,0,1,.57-.57h4v-8.61a.51.51,0,0,1,.57-.57h3.44a.52.52,0,0,1,.57.58Zm0,18.32v3.44a.5.5,0,0,1-.57.57H95.7a.51.51,0,0,1-.58-.57V210.8a.51.51,0,0,1,.58-.57h3.43A.5.5,0,0,1,99.7,210.8Z"/><path class="cls-11" d="M378.09,195.74a31.15,31.15,0,0,0-5.89-12.81A43.94,43.94,0,0,0,347.62,167a17.63,17.63,0,0,0-10.45.74,13.48,13.48,0,0,0-7.5,8.66c-.05.15-1.23,3.93.42,6.49a4.59,4.59,0,0,0,2.52,1.88A60.94,60.94,0,0,0,341,195.94a49,49,0,0,0-4.73,6c-.34.47-.66.94-1,1.39-2,2.75-4,5.84-6.08,9.42a92.29,92.29,0,0,0-6.19,12c-1.87,4.58-4.7,11.5-1.26,16.44.1.14.2.28.31.41a5.65,5.65,0,0,0,3,1.93,6.29,6.29,0,0,0,1.41.16c4.43,0,8-4.84,10.42-8.15l.7-.94a39,39,0,0,0,5.06-8.78,2.49,2.49,0,0,0,1.54.66h0a1.74,1.74,0,0,0,1.47-.83c.86-1.32,2.51-3.31,2.51-3.31h0c1.4-1.54,2-2.72,1.78-3.71a.24.24,0,0,0,0-.09l.56-.46c2.95-2.45,7-5.77,9.25-9.54a21.07,21.07,0,0,0,7.09,1.07h.24c4.26,0,7.62-1.41,9.45-3.9S378.88,199.73,378.09,195.74Zm-44.5-12.85a3.07,3.07,0,0,1-1.1-.47l4.71-4.77.88.22Zm-1-3.52a2.19,2.19,0,0,1-.3-1.55c.16-.35.85-.58,1.8-.62,0,0,.22,0,.61,0Zm3.32,54-.71,1c-2.36,3.22-5.93,8.07-9.69,7.2a3.56,3.56,0,0,1-1.87-1.23h0l-.21-.28c-2.8-4-.22-10.3,1.51-14.54a71,71,0,0,1,3.54-7.29,23,23,0,0,0,12.38,6.51A37.07,37.07,0,0,1,335.91,233.37Zm8.14-9.05a3.69,3.69,0,0,1-.6-.63,6.54,6.54,0,0,1,3.22-4,7.31,7.31,0,0,1,1.08-.29h0a7.16,7.16,0,0,1-1.18,1.6C346.52,221.08,345,222.92,344.05,224.32Zm4.1-5,.08,0,0,0Zm11.26-15.85c-.44,4.9-6.59,10-10.26,13l-.66.55a5.82,5.82,0,0,1-1.16.32,6.32,6.32,0,0,0-1.61.48,8.37,8.37,0,0,0-4.12,4.87,21.24,21.24,0,0,1-12.05-6.45c.47-.82.95-1.63,1.42-2.43,2.08-3.53,4-6.56,6-9.27.33-.45.66-.92,1-1.4,1.77-2.53,3.78-5.39,6.05-7.19a7.43,7.43,0,0,1,4.73-1.55,12.42,12.42,0,0,1,9.06,4.3A6.23,6.23,0,0,1,359.41,203.47Zm7.63,4.08a19.06,19.06,0,0,1-6.36-.86,10.3,10.3,0,0,0,.8-3,8.34,8.34,0,0,0-2.12-6.27c-4.83-5.76-12.66-6.22-16.66-3l-.21.18a64,64,0,0,1-7.61-10l5.39-6,.5.18c5.83,8.34,15.68,16.92,25.22,22a12.62,12.62,0,0,1,1.52,6.87Zm-22.43-27.19c4.89,2.45,11.74,7.22,18.7,16.38A76.71,76.71,0,0,1,344.61,180.36Zm30.22,24.14a8,8,0,0,1-5.22,2.83,15.62,15.62,0,0,0-2.86-9.4c-15.77-22.49-32-22.8-32.69-22.81a6.54,6.54,0,0,0-1.78.3,11,11,0,0,1,5.7-5.77,15.58,15.58,0,0,1,9.2-.62,41.75,41.75,0,0,1,23.37,15.17,29,29,0,0,1,5.5,11.94C376.44,198.12,376.81,201.83,374.83,204.5Z"/></svg>