<svg id="图层_1" data-name="图层 1" xmlns="http://www.w3.org/2000/svg" xmlns:xlink="http://www.w3.org/1999/xlink" viewBox="0 0 440 320"><defs><style>.cls-1{fill:#f0f2f7;opacity:0.5;}.cls-2,.cls-8{fill:#e6e7e8;}.cls-3{fill:url(#未命名的渐变_22);}.cls-4{fill:url(#未命名的渐变_22-2);}.cls-5{fill:url(#未命名的渐变_22-3);}.cls-6{fill:url(#未命名的渐变_22-4);}.cls-7{fill:#ccc;}.cls-8{opacity:0.7;}.cls-11,.cls-9{fill:#fff;}.cls-10{fill:none;stroke:#000;stroke-linecap:round;stroke-linejoin:round;}.cls-10,.cls-11{stroke-width:3px;}.cls-11{stroke:#ccc;stroke-miterlimit:10;}.cls-12{fill:url(#未命名的渐变_30);}</style><linearGradient id="未命名的渐变_22" x1="285.27" y1="133.63" x2="298.03" y2="133.63" gradientUnits="userSpaceOnUse"><stop offset="0.33" stop-color="#00bf6c"/><stop offset="1" stop-color="#00a63b"/></linearGradient><linearGradient id="未命名的渐变_22-2" x1="326.04" y1="120.87" x2="338.8" y2="120.87" xlink:href="#未命名的渐变_22"/><linearGradient id="未命名的渐变_22-3" x1="305.42" y1="164.99" x2="318.18" y2="164.99" xlink:href="#未命名的渐变_22"/><linearGradient id="未命名的渐变_22-4" x1="265.17" y1="158.96" x2="277.93" y2="158.96" xlink:href="#未命名的渐变_22"/><linearGradient id="未命名的渐变_30" x1="260.02" y1="147.95" x2="343.95" y2="147.95" gradientUnits="userSpaceOnUse"><stop offset="0.33" stop-color="#363b1c"/><stop offset="1" stop-color="#2b2c2e"/></linearGradient></defs><title>开发者网站配图</title><rect class="cls-1" x="50.28" y="70.66" width="341.6" height="185.77" rx="12"/><ellipse class="cls-2" cx="356.36" cy="211.63" rx="2.38" ry="2.33"/><ellipse class="cls-2" cx="365.74" cy="211.63" rx="2.38" ry="2.33"/><ellipse class="cls-2" cx="375.11" cy="211.63" rx="2.38" ry="2.33"/><ellipse class="cls-2" cx="384.49" cy="211.63" rx="2.38" ry="2.33"/><ellipse class="cls-2" cx="393.87" cy="211.63" rx="2.38" ry="2.33"/><ellipse class="cls-2" cx="403.24" cy="211.63" rx="2.38" ry="2.33"/><ellipse class="cls-2" cx="412.62" cy="211.63" rx="2.38" ry="2.33"/><ellipse class="cls-2" cx="356.36" cy="224.08" rx="2.38" ry="2.33"/><ellipse class="cls-2" cx="365.74" cy="224.08" rx="2.38" ry="2.33"/><ellipse class="cls-2" cx="375.11" cy="224.08" rx="2.38" ry="2.33"/><ellipse class="cls-2" cx="384.49" cy="224.08" rx="2.38" ry="2.33"/><ellipse class="cls-2" cx="393.87" cy="224.08" rx="2.38" ry="2.33"/><ellipse class="cls-2" cx="403.24" cy="224.08" rx="2.38" ry="2.33"/><ellipse class="cls-2" cx="412.62" cy="224.08" rx="2.38" ry="2.33"/><ellipse class="cls-2" cx="356.36" cy="236.53" rx="2.38" ry="2.33"/><ellipse class="cls-2" cx="365.74" cy="236.53" rx="2.38" ry="2.33"/><ellipse class="cls-2" cx="375.11" cy="236.53" rx="2.38" ry="2.33"/><ellipse class="cls-2" cx="384.49" cy="236.53" rx="2.38" ry="2.33"/><ellipse class="cls-2" cx="393.87" cy="236.53" rx="2.38" ry="2.33"/><ellipse class="cls-2" cx="403.24" cy="236.53" rx="2.38" ry="2.33"/><ellipse class="cls-2" cx="412.62" cy="236.53" rx="2.38" ry="2.33"/><ellipse class="cls-2" cx="356.36" cy="248.98" rx="2.38" ry="2.33"/><ellipse class="cls-2" cx="365.74" cy="248.98" rx="2.38" ry="2.33"/><ellipse class="cls-2" cx="375.11" cy="248.98" rx="2.38" ry="2.33"/><ellipse class="cls-2" cx="384.49" cy="248.98" rx="2.38" ry="2.33"/><ellipse class="cls-2" cx="393.87" cy="248.98" rx="2.38" ry="2.33"/><ellipse class="cls-2" cx="403.24" cy="248.98" rx="2.38" ry="2.33"/><ellipse class="cls-2" cx="412.62" cy="248.98" rx="2.38" ry="2.33"/><ellipse class="cls-2" cx="356.36" cy="261.43" rx="2.38" ry="2.33"/><ellipse class="cls-2" cx="365.74" cy="261.43" rx="2.38" ry="2.33"/><ellipse class="cls-2" cx="375.11" cy="261.43" rx="2.38" ry="2.33"/><ellipse class="cls-2" cx="384.49" cy="261.43" rx="2.38" ry="2.33"/><ellipse class="cls-2" cx="393.87" cy="261.43" rx="2.38" ry="2.33"/><ellipse class="cls-2" cx="403.24" cy="261.43" rx="2.38" ry="2.33"/><ellipse class="cls-2" cx="412.62" cy="261.43" rx="2.38" ry="2.33"/><path class="cls-2" d="M412.21,74.73l-1.38-.5a4.67,4.67,0,0,1-2.78-2.57,4.57,4.57,0,0,1,0-3.76l.64-1.33a2.76,2.76,0,0,0-.56-3.15L406.66,62a2.78,2.78,0,0,0-3.16-.56l-1.33.64a4.75,4.75,0,0,1-6.36-2.77l-.3-1.22a2.79,2.79,0,0,0-2.61-1.82h-2.06a2.76,2.76,0,0,0-2.6,1.83l-.5,1.38a4.74,4.74,0,0,1-6.36,2.77l-1.33-.64a2.79,2.79,0,0,0-3.16.55l-1.47,1.47a2.76,2.76,0,0,0-.56,3.15l.64,1.33a4.72,4.72,0,0,1-2.78,6.33l-1.38.49a2.77,2.77,0,0,0-1.67,2.43v2.05A2.76,2.76,0,0,0,371.53,82l1.39.5a4.71,4.71,0,0,1,2.78,6.33l-.64,1.33a2.76,2.76,0,0,0,.55,3.15l1.48,1.46a2.78,2.78,0,0,0,3.16.56l1.33-.64a4.75,4.75,0,0,1,6.36,2.76l.5,1.39a2.77,2.77,0,0,0,2.61,1.82h2.05a2.78,2.78,0,0,0,2.61-1.82l.5-1.36a4.75,4.75,0,0,1,6.32-2.76l1.36.64a2.78,2.78,0,0,0,3.16-.56l1.47-1.46a2.75,2.75,0,0,0,.56-3.15l-.64-1.33a4.69,4.69,0,0,1,2.78-6.3l1.39-.5a2.79,2.79,0,0,0,1.47-2.65V77.32a2.77,2.77,0,0,0-1.87-2.59ZM400,80a8.3,8.3,0,1,1-2.27-7.49A8.33,8.33,0,0,1,400,80Z"/><circle class="cls-3" cx="291.65" cy="133.63" r="6.38"/><circle class="cls-4" cx="332.42" cy="120.87" r="6.38"/><circle class="cls-5" cx="311.8" cy="164.99" r="6.38"/><circle class="cls-6" cx="271.55" cy="158.96" r="6.38"/><rect class="cls-7" x="261.42" y="193.15" width="43.58" height="3.23" rx="0.92"/><rect class="cls-7" x="261.42" y="206.06" width="66.18" height="3.23" rx="0.92"/><rect class="cls-7" x="261.42" y="231.88" width="46.81" height="3.23" rx="0.92"/><rect class="cls-7" x="261.42" y="218.97" width="82.32" height="3.23" rx="0.92"/><path class="cls-8" d="M131.65,140.24A54.37,54.37,0,1,0,186,85.86,54.37,54.37,0,0,0,131.65,140.24Z"/><rect class="cls-7" x="140.78" y="145.43" width="90.58" height="49.42" rx="18.61" transform="translate(-0.31 0.34) rotate(-0.1)"/><rect class="cls-9" x="146.62" y="149.67" width="78.91" height="40.94" rx="13.6" transform="translate(-0.31 0.34) rotate(-0.1)"/><path class="cls-10" d="M115.45,226.52,115,206.79s-27.65-61.16,7.43-90.71a42.79,42.79,0,0,1,17.22-8.64c17.94-4.47,57.93-10.14,70.61,34.21"/><path class="cls-10" d="M131.94,205.43s13.84,26.42,44.1,25.72c0,0,15.59.07,16,0,8.46-1.75,9.11-6.25,9.92-14.67l6.54-19.31"/><line class="cls-10" x1="176.04" y1="231.83" x2="176.04" y2="241.23"/><rect class="cls-11" x="98.21" y="161.31" width="43.75" height="20.51" rx="2"/><path class="cls-12" d="M344,182.52a1.74,1.74,0,0,1-1.72,1.75H261.74a1.76,1.76,0,0,1,0-3.51h80.49A1.74,1.74,0,0,1,344,182.52ZM262.2,159.29a9.47,9.47,0,0,1,9.35-9.56,9.21,9.21,0,0,1,3.61.74l9.14-10.62a9.61,9.61,0,0,1-2-5.88A9.36,9.36,0,1,1,301,134a9.63,9.63,0,0,1-3,7l10.1,15.53a9.23,9.23,0,0,1,3.65-.75,9.33,9.33,0,0,1,2.32.29l12.69-27.19a9.64,9.64,0,0,1-3.76-7.66,9.36,9.36,0,1,1,9.36,9.56,9.26,9.26,0,0,1-2.53-.35l-12.64,27.13a9.61,9.61,0,0,1,3.93,7.78,9.36,9.36,0,1,1-15.86-6.86l-10.15-15.59a9.17,9.17,0,0,1-8.27-.68l-8.82,10.24a9.61,9.61,0,0,1,2.85,6.87,9.36,9.36,0,1,1-18.71,0Zm64.3-38.1a5.93,5.93,0,1,0,5.93-6A6,6,0,0,0,326.5,121.19Zm-14.7,38.07a6.06,6.06,0,1,0,5.93,6.06,6.08,6.08,0,0,0-3.06-5.29,2.16,2.16,0,0,1-.43-.14,2.24,2.24,0,0,1-.34-.23A5.68,5.68,0,0,0,311.8,159.26ZM285.75,134a5.93,5.93,0,1,0,5.93-6A6,6,0,0,0,285.75,134Zm-20.12,25.31a5.93,5.93,0,1,0,5.92-6A6,6,0,0,0,265.63,159.29Z"/><path class="cls-7" d="M25,125.79c0,3.7,3.14,6.52,7.26,6.52H75.84c4.12,0,7.26-2.82,7.26-6.52V101.9H25Zm40.67-14.11c-.72-.66-1-1.51-.23-2.17a1.78,1.78,0,0,1,2.41-.23l7.26,5.42a1.22,1.22,0,0,1,.73,1.08,3.17,3.17,0,0,1-.49,1.31l-7.27,6.3a1.91,1.91,0,0,1-2.41,0,1.35,1.35,0,0,1,0-2.16l5.81-5Zm-16.94,9.55L56,109.51a1.78,1.78,0,0,1,2.41-.65,1.42,1.42,0,0,1,.72,2.16l-7.26,11.72a2,2,0,0,1-1.45.85,1.49,1.49,0,0,1-1-.23A1.54,1.54,0,0,1,48.73,121.23ZM33,114.5l7.26-5.42a1.73,1.73,0,0,1,2.41.2,1.37,1.37,0,0,1,.06,1.94,1.09,1.09,0,0,1-.29.23l-5.81,4.33,5.81,5a1.34,1.34,0,0,1,.28,1.88l0,0a2.12,2.12,0,0,1-.26.26,1.91,1.91,0,0,1-2.41,0l-7.26-6.3a1.71,1.71,0,0,1-.5-1.31c0-.18.24-.4.73-.83ZM75.84,86.71H32.26c-4.12,0-7.26,2.82-7.26,6.52v6.53H83.1V93.23c0-3.7-3.14-6.52-7.26-6.52ZM37.11,95.4H32.26V91h4.85Zm9.68,0H41.94V91h4.85Zm9.67,0H51.64V91h4.85V95.4Z"/></svg>