<?xml version="1.0" standalone="no"?><!DOCTYPE svg PUBLIC "-//W3C//DTD SVG 1.1//EN" "http://www.w3.org/Graphics/SVG/1.1/DTD/svg11.dtd"><svg t="1612518282082" class="icon" viewBox="0 0 1024 1024" version="1.1" xmlns="http://www.w3.org/2000/svg" p-id="12381" xmlns:xlink="http://www.w3.org/1999/xlink" width="128" height="128"><defs><style type="text/css"></style></defs><path d="M826.346891 1023.987627H197.974818a152.193141 152.193141 0 0 1-99.519466-36.650089l-0.457817-0.408323c-27.98869-25.291283-43.430726-58.513932-43.430726-93.555475V515.031489c0-35.289011 15.862732-69.427294 43.542087-93.703956 22.185553-20.04495 50.533072-32.566858 81.281036-36.167524v-86.007685a270.520216 270.520216 0 0 1 26.788468-117.324827 297.754126 297.754126 0 0 1 72.075207-94.891805l1.29921-1.076488 2.152976-1.670413c62.461055-54.294594 144.373136-84.139298 230.752024-84.139297 87.57911 0 170.542932 30.933565 233.585538 86.997559A295.378429 295.378429 0 0 1 818.007202 181.889364a271.497716 271.497716 0 0 1 26.590492 117.26296v85.945818c31.440876 3.50168 59.98637 16.085454 81.788347 36.365499 27.357645 24.078687 43.04715 58.155103 43.04715 93.567848v378.342251c0 35.239518-15.293555 68.462167-43.059523 93.555475l-1.163102 1.051742-3.811016 2.70978c-25.848087 21.480268-59.528553 33.29689-95.052659 33.29689zM134.066072 946.542352a98.108896 98.108896 0 0 0 63.908746 23.299162h628.372073c23.138307 0 44.767056-7.54779 60.914377-21.232799l0.86614-0.730033 2.969622-2.115855c15.578144-14.551149 24.128181-33.098915 24.128181-52.389087V515.031489c0-20.218178-8.834626-39.07528-24.870587-53.094371l-0.680538-0.618671c-15.677131-14.66251-38.753571-23.07644-63.327195-23.07644h-35.957176V299.152324c0-64.910993-28.45888-125.874864-80.241669-171.656541-53.205732-47.315982-123.363059-73.34967-197.653109-73.34967-73.547645 0-143.04918 25.328403-195.710481 71.332801l-1.163102 0.965128-2.053989 1.596172c-51.584814 45.917784-79.9942 106.658933-79.9942 171.11211v139.089683h-35.598347c-24.425143 0-47.019019 8.290196-63.648904 23.361028l-0.358829 0.334083C117.708403 476.141811 108.750042 494.998912 108.750042 515.031489v378.342251c0 19.438652 8.983107 38.308127 25.31603 53.168612z" p-id="12382" fill="#6E6E73"></path><path d="M512.383576 912.985621c-26.25641 0-47.625317-19.636627-47.625317-43.777182v-39.285628a135.884966 135.884966 0 0 1-47.019019-27.221537c-25.575872-22.754731-40.250755-54.294594-40.250756-86.539743s14.674883-63.747891 40.263129-86.490248c25.303656-22.556756 58.934629-34.992049 94.69383-34.99205a142.096426 142.096426 0 0 1 93.939052 34.917809c25.674859 22.816598 40.349743 54.344088 40.349742 86.613983s-14.674883 63.785012-40.250755 86.613983a135.909713 135.909713 0 0 1-47.427342 27.221537v39.161894c-0.123734 24.140554-21.034824 43.777182-46.672564 43.777182z m0-281.76766c-26.776094 0-51.770415 9.143962-70.380048 25.736726-17.817734 15.837985-28.02581 37.404867-28.02581 59.194471s10.208077 43.405979 28.001064 59.243964a100.385606 100.385606 0 0 0 45.014524 22.828971l14.254187 3.167597v67.818749c0 3.415066 4.739022 7.226081 11.136083 7.226081 5.926871 0 10.059595-3.811015 10.059596-7.226081v-67.868242l14.390294-3.130477a100.076271 100.076271 0 0 0 45.28674-22.816598c17.792987-15.837985 28.001063-37.429614 28.001063-59.243964s-10.208077-43.306991-27.98869-59.169724c-19.240678-16.82786-43.381232-25.761473-69.749003-25.761473zM178.783634 385.617825h667.397859v52.79741H178.783634z" p-id="12383" fill="#6E6E73"></path></svg>