<?xml version="1.0" standalone="no"?><!DOCTYPE svg PUBLIC "-//W3C//DTD SVG 1.1//EN" "http://www.w3.org/Graphics/SVG/1.1/DTD/svg11.dtd"><svg t="1612517925238" class="icon" viewBox="0 0 1024 1024" version="1.1" xmlns="http://www.w3.org/2000/svg" p-id="2413" xmlns:xlink="http://www.w3.org/1999/xlink" width="128" height="128"><defs><style type="text/css"></style></defs><path d="M512 600c-71.6 0-138.9-27.9-189.5-78.5C271.9 470.9 244 403.6 244 332s27.9-138.9 78.5-189.5C373.1 91.9 440.4 64 512 64s138.9 27.9 189.5 78.5C752.1 193.1 780 260.4 780 332s-27.9 138.9-78.5 189.5C650.9 572.1 583.6 600 512 600z m0-472c-112.5 0-204 91.5-204 204s91.5 204 204 204 204-91.5 204-204-91.5-204-204-204z" fill="#6E6E73" p-id="2414"></path><path d="M128.8 960c-0.7 0-1.3 0-2-0.1-17.6-1.1-31.1-16.3-30-33.9 6.5-105.6 52.6-203.8 129.7-276.6C304 576.3 405.4 536 512 536s208 40.3 285.5 113.4c77.2 72.8 123.2 171.1 129.7 276.6 1.1 17.6-12.3 32.8-30 33.9-17.6 1.1-32.8-12.3-33.9-30-11.4-185-165.7-330-351.3-330-185.6 0-339.9 144.9-351.3 330-1.1 17-15.2 30.1-31.9 30.1z" fill="#6E6E73" p-id="2415"></path></svg>